<svg xmlns="http://www.w3.org/2000/svg" viewBox="0 0 64 80" x="0px" y="0px" fill="hsl(4,2%,32%)"><path d="M59,12H47a3,3,0,0,0-3,3v2a3,3,0,0,0,3,3h3v4.723L47.434,29H35.073l-13.8-1.972L14.9,24.3,14.18,20H17a3,3,0,0,0,3-3V15a3,3,0,0,0-3-3H5a3,3,0,0,0-3,3v2a3,3,0,0,0,3,3H7.82l-.806,4.836a.662.662,0,0,0,0,.077A.838.838,0,0,0,7,25V39a.838.838,0,0,0,.018.087.662.662,0,0,0,0,.077L7.82,44H5a3,3,0,0,0-3,3v2a3,3,0,0,0,3,3H17a3,3,0,0,0,3-3V47a3,3,0,0,0-3-3H14.18l.716-4.3,6.374-2.731L35.073,35H47.434L50,39.277V44H47a3,3,0,0,0-3,3v2a3,3,0,0,0,3,3H59a3,3,0,0,0,3-3V47a3,3,0,0,0-3-3H56V20h3a3,3,0,0,0,3-3V15A3,3,0,0,0,59,12ZM34,33.133,22,34.847V29.153l12,1.714ZM4,17V15a1,1,0,0,1,1-1H17a1,1,0,0,1,1,1v2a1,1,0,0,1-1,1H5A1,1,0,0,1,4,17Zm8.153,3,.666,4H9.181l.666-4ZM18,47v2a1,1,0,0,1-1,1H5a1,1,0,0,1-1-1V47a1,1,0,0,1,1-1H17A1,1,0,0,1,18,47ZM9.847,44l-.666-4h3.638l-.666,4ZM20,35.341,13.8,38H9V26h4.8L20,28.659ZM36,31H47v2H36Zm13-.723L51.566,26H54V38H51.566L49,33.723ZM60,47v2a1,1,0,0,1-1,1H47a1,1,0,0,1-1-1V47a1,1,0,0,1,1-1H59A1,1,0,0,1,60,47Zm-8-3V40h2v4Zm2-20H52V20h2Zm6-7a1,1,0,0,1-1,1H47a1,1,0,0,1-1-1V15a1,1,0,0,1,1-1H59a1,1,0,0,1,1,1Z"/></svg>