<svg xmlns="http://www.w3.org/2000/svg" viewBox="0 0 64 80" x="0px" y="0px"><path d="M32,2A30,30,0,1,0,62,32,30.034,30.034,0,0,0,32,2ZM49.245,54.035l-1.154-1.588-1.618,1.176,1.16,1.6A27.988,27.988,0,0,1,41.6,58.305l-.613-1.887-1.9.619.611,1.879A27.846,27.846,0,0,1,33,59.975V58H31v1.975a27.846,27.846,0,0,1-6.694-1.059l.611-1.879-1.9-.619L22.4,58.305a27.988,27.988,0,0,1-6.034-3.086l1.16-1.6-1.618-1.176-1.154,1.588a28.268,28.268,0,0,1-4.79-4.79l1.588-1.154-1.176-1.618-1.6,1.16A27.988,27.988,0,0,1,5.7,41.6l1.887-.613-.619-1.9-1.879.611A27.846,27.846,0,0,1,4.025,33H6V31H4.025a27.846,27.846,0,0,1,1.059-6.694l1.879.611.619-1.9L5.7,22.4a27.988,27.988,0,0,1,3.086-6.034l1.6,1.16,1.176-1.618L9.965,14.755a28.268,28.268,0,0,1,4.79-4.79l1.154,1.588,1.618-1.176-1.16-1.6A27.988,27.988,0,0,1,22.4,5.7l.613,1.887,1.9-.619-.611-1.879A27.846,27.846,0,0,1,31,4.025V6h2V4.025a27.846,27.846,0,0,1,6.694,1.059l-.611,1.879,1.9.619L41.6,5.7a27.988,27.988,0,0,1,6.034,3.086l-1.16,1.6,1.618,1.176,1.154-1.588a28.268,28.268,0,0,1,4.79,4.79l-1.588,1.154,1.176,1.618,1.6-1.16A27.988,27.988,0,0,1,58.305,22.4l-1.887.613.619,1.9,1.879-.611A27.846,27.846,0,0,1,59.975,31H58v2h1.975a27.846,27.846,0,0,1-1.059,6.694l-1.879-.611-.619,1.9,1.887.613a27.988,27.988,0,0,1-3.086,6.034l-1.6-1.16-1.176,1.618,1.588,1.154A28.268,28.268,0,0,1,49.245,54.035Z"/><path d="M32,10A22,22,0,1,0,54,32,22.025,22.025,0,0,0,32,10Zm0,42A20,20,0,1,1,52,32,20.023,20.023,0,0,1,32,52Z"/><path d="M32,15A17,17,0,1,0,49,32,17.019,17.019,0,0,0,32,15ZM46.932,30.66l-6.263-.506A1,1,0,0,1,40.1,28.4l4.759-4.083A14.87,14.87,0,0,1,46.932,30.66ZM35.339,17.388l-2.416,5.8a1,1,0,0,1-1.846,0l-2.416-5.8a14.561,14.561,0,0,1,6.678,0Zm-16.2,6.927L23.9,28.4a1,1,0,0,1-.57,1.756l-6.263.506A14.87,14.87,0,0,1,19.142,24.315Zm1.577,17.539,5.352-3.265a1,1,0,0,1,1.494,1.085L26.11,45.792A15.069,15.069,0,0,1,20.719,41.854Zm7.291,4.591,1.5-6.308a3,3,0,0,0-4.481-3.255L19.492,40.26a14.9,14.9,0,0,1-2.458-7.591l6.458-.522A3,3,0,0,0,25.2,26.88l-4.92-4.22a15.05,15.05,0,0,1,6.455-4.689l2.492,5.983a3,3,0,0,0,5.539,0l2.493-5.983a15.056,15.056,0,0,1,6.455,4.689L38.8,26.88a3,3,0,0,0,1.711,5.267l6.458.522a14.9,14.9,0,0,1-2.458,7.591L38.97,36.881a3,3,0,0,0-4.481,3.256l1.5,6.308a14.62,14.62,0,0,1-7.98,0Zm9.88-.653-1.455-6.118a1,1,0,0,1,1.494-1.085l5.352,3.265A15.069,15.069,0,0,1,37.89,45.792Z"/><path d="M36,32a4,4,0,1,0-4,4A4,4,0,0,0,36,32Zm-4,2a2,2,0,1,1,2-2A2,2,0,0,1,32,34Z"/></svg>