<svg xmlns="http://www.w3.org/2000/svg" viewBox="0 0 64 80" x="0px" y="0px"><path d="M45.707,33.293l-3-3A1,1,0,0,0,42,30H22a1,1,0,0,0-.707.293l-3,3a1,1,0,0,0-.232,1.049l4,11A1,1,0,0,0,23,46H41a1,1,0,0,0,.939-.658l4-11A1,1,0,0,0,45.707,33.293ZM29.074,32H31V44H29.931ZM27.926,44H26.808L24.237,32h2.832ZM33,32h1.926l-.857,12H33Zm3.931,0h2.832L37.192,44H36.074ZM20.157,34.257l2.074-2.074L24.763,44H23.7ZM40.3,44H39.237l2.532-11.817,2.074,2.074Z"/><path d="M17.929,39.629A1,1,0,0,0,17,39H7a1,1,0,0,0-1,1v5a1,1,0,0,0,1,1H19a1,1,0,0,0,.929-1.371ZM8,44V41h8.323l1.2,3Z"/><path d="M57,39H47a1,1,0,0,0-.929.629l-2,5A1,1,0,0,0,45,46H57a1,1,0,0,0,1-1V40A1,1,0,0,0,57,39Zm-1,5H46.477l1.2-3H56Z"/><path d="M48.065,33.144l-.994,2.485A1,1,0,0,0,48,37h7a3,3,0,0,0,3-3V31a1,1,0,0,0-1-1H52.708A4.975,4.975,0,0,0,48.065,33.144ZM56,34a1,1,0,0,1-1,1H49.477l.446-1.114A2.985,2.985,0,0,1,52.708,32H56Z"/><path d="M9,37h7a1,1,0,0,0,.929-1.371l-.994-2.485A4.975,4.975,0,0,0,11.292,30H7a1,1,0,0,0-1,1v3A3,3,0,0,0,9,37ZM8,32h3.292a2.985,2.985,0,0,1,2.785,1.886L14.523,35H9a1,1,0,0,1-1-1Z"/><path d="M14,24H50a1,1,0,0,0,.929-1.371l-4-10A1,1,0,0,0,46,12H18a1,1,0,0,0-.929.629l-4,10A1,1,0,0,0,14,24Zm4.677-10H45.323l3.2,8H15.477Z"/><path d="M62,20a3,3,0,0,0-3-3H57a2.994,2.994,0,0,0-2.841,2.081L49.447,9.658A2.985,2.985,0,0,0,46.764,8H16.318a3,3,0,0,0-2.756,1.818L9.727,18.765A3,3,0,0,0,7,17H5a3,3,0,0,0,0,6H7.585L2.879,27.707A2.978,2.978,0,0,0,2,29.828V45a5.009,5.009,0,0,0,4,4.9V53a3,3,0,0,0,3,3h4a3,3,0,0,0,3-3V50H48v3a3,3,0,0,0,3,3h4a3,3,0,0,0,3-3V49.9A5.009,5.009,0,0,0,62,45V29.828a2.982,2.982,0,0,0-.879-2.121L56.415,23H59A3,3,0,0,0,62,20Zm-6,0a1,1,0,0,1,1-1h2a1,1,0,0,1,0,2H56ZM4,20a1,1,0,0,1,1-1H7a1,1,0,0,1,1,1v1H5A1,1,0,0,1,4,20ZM14,53a1,1,0,0,1-1,1H9a1,1,0,0,1-1-1V50h6Zm42,0a1,1,0,0,1-1,1H51a1,1,0,0,1-1-1V50h6Zm4-23.172V45a3,3,0,0,1-3,3H7a3,3,0,0,1-3-3V29.828a1,1,0,0,1,.293-.707l5.551-5.55L15.4,10.606A1,1,0,0,1,16.318,10H46.764a.993.993,0,0,1,.894.553l6.52,13.04,5.529,5.528A1,1,0,0,1,60,29.828Z"/></svg>