<svg xmlns="http://www.w3.org/2000/svg" viewBox="0 0 64 80" x="0px" y="0px"><path d="M7,62h8a5.006,5.006,0,0,0,5-5V41a5.006,5.006,0,0,0-5-5H14V3a1,1,0,0,0-1-1H9A1,1,0,0,0,8,3V36H7a5.006,5.006,0,0,0-5,5V57A5.006,5.006,0,0,0,7,62ZM10,4h2V36H10ZM4,41a3,3,0,0,1,3-3h8a3,3,0,0,1,3,3V57a3,3,0,0,1-3,3H7a3,3,0,0,1-3-3Z"/><path d="M23.668,37.614a5.012,5.012,0,0,0-1.3,3.8l1.333,16A5.03,5.03,0,0,0,28.681,62h6.638A5.03,5.03,0,0,0,40.3,57.415l1.333-16A5,5,0,0,0,36.652,36H34.618L31,28.764V3a1,1,0,0,0-1-1H26a1,1,0,0,0-1,1V29a1,1,0,0,0,.105.447L28.382,36H27.348A5.013,5.013,0,0,0,23.668,37.614ZM38.86,38.969a2.968,2.968,0,0,1,.783,2.28l-1.333,16A3.019,3.019,0,0,1,35.319,60H28.681a3.019,3.019,0,0,1-2.991-2.751l-1.333-16A3,3,0,0,1,27.348,38h9.3A2.968,2.968,0,0,1,38.86,38.969ZM27,28.764V4h2V29a1,1,0,0,0,.105.447L32.382,36H30.618Z"/><path d="M59,12.424V3a1,1,0,0,0-1-1H49a1,1,0,0,0-1,1v9.424A5,5,0,0,0,45,17V57a5.006,5.006,0,0,0,5,5h7a5.006,5.006,0,0,0,5-5V17A5,5,0,0,0,59,12.424ZM50,4h7v8H50ZM60,57a3,3,0,0,1-3,3H50a3,3,0,0,1-3-3V17a3,3,0,0,1,3-3h7a3,3,0,0,1,3,3Z"/><path d="M7,42h8a1,1,0,0,0,0-2H7a1,1,0,0,0,0,2Z"/><path d="M7,46h8a1,1,0,0,0,0-2H7a1,1,0,0,0,0,2Z"/><path d="M7,50h8a1,1,0,0,0,0-2H7a1,1,0,0,0,0,2Z"/><path d="M7,54h8a1,1,0,0,0,0-2H7a1,1,0,0,0,0,2Z"/><path d="M7,58h8a1,1,0,0,0,0-2H7a1,1,0,0,0,0,2Z"/><path d="M27,41a1,1,0,0,0,1,1h8a1,1,0,0,0,0-2H28A1,1,0,0,0,27,41Z"/><path d="M36,44H28a1,1,0,0,0,0,2h8a1,1,0,0,0,0-2Z"/><path d="M36,48H28a1,1,0,0,0,0,2h8a1,1,0,0,0,0-2Z"/><path d="M36,52H28a1,1,0,0,0,0,2h8a1,1,0,0,0,0-2Z"/><path d="M36,56H28a1,1,0,0,0,0,2h8a1,1,0,0,0,0-2Z"/><path d="M57,40H50a1,1,0,0,0,0,2h7a1,1,0,0,0,0-2Z"/><path d="M57,44H50a1,1,0,0,0,0,2h7a1,1,0,0,0,0-2Z"/><path d="M57,48H50a1,1,0,0,0,0,2h7a1,1,0,0,0,0-2Z"/><path d="M57,52H50a1,1,0,0,0,0,2h7a1,1,0,0,0,0-2Z"/><path d="M57,56H50a1,1,0,0,0,0,2h7a1,1,0,0,0,0-2Z"/><path d="M57,20H50a1,1,0,0,0,0,2h7a1,1,0,0,0,0-2Z"/><path d="M57,24H50a1,1,0,0,0,0,2h7a1,1,0,0,0,0-2Z"/><path d="M57,28H50a1,1,0,0,0,0,2h7a1,1,0,0,0,0-2Z"/><path d="M57,32H50a1,1,0,0,0,0,2h7a1,1,0,0,0,0-2Z"/><path d="M57,36H50a1,1,0,0,0,0,2h7a1,1,0,0,0,0-2Z"/><path d="M57,16H50a1,1,0,0,0,0,2h7a1,1,0,0,0,0-2Z"/></svg>