<svg xmlns="http://www.w3.org/2000/svg" viewBox="0 0 64 80" x="0px" y="0px"><path d="M61,56H56V44h2a1,1,0,0,0,1-1V31a1,1,0,0,0-1-1H48a1,1,0,0,0-1,1V43a1,1,0,0,0,1,1h2V56H42V52h2a1,1,0,0,0,1-1V39a1,1,0,0,0-1-1H34a1,1,0,0,0-1,1V51a1,1,0,0,0,1,1h2v4H28V52h2a1,1,0,0,0,1-1V39a1,1,0,0,0-1-1H20a1,1,0,0,0-1,1V51a1,1,0,0,0,1,1h2v4H14V44h2a1,1,0,0,0,1-1V31a1,1,0,0,0-1-1H6a1,1,0,0,0-1,1V43a1,1,0,0,0,1,1H8V56H3a1,1,0,0,0-1,1v4a1,1,0,0,0,1,1H61a1,1,0,0,0,1-1V57A1,1,0,0,0,61,56ZM57,32v2H49V32Zm-8,4h8v6H49Zm3,8h2V56H52Zm-9-4v2H35V40Zm-8,4h8v6H35Zm3,8h2v4H38ZM29,40v2H21V40Zm-8,4h8v6H21Zm3,8h2v4H24ZM15,32v2H7V32ZM7,36h8v6H7Zm3,8h2V56H10ZM60,60H4V58H60Z"/><path d="M61,2H3A1,1,0,0,0,2,3V7A1,1,0,0,0,3,8H8V19a1,1,0,0,0,1,1h1v6H9v2h4V26H12V20h1a1,1,0,0,0,1-1V8h8V19a1,1,0,0,0,1,1h1v6H23v2h4V26H26V20h1a1,1,0,0,0,1-1V8h8V19a1,1,0,0,0,1,1h1v6H37v2h4V26H40V20h1a1,1,0,0,0,1-1V8h8V19a1,1,0,0,0,1,1h1v6H51v2h4V26H54V20h1a1,1,0,0,0,1-1V8h5a1,1,0,0,0,1-1V3A1,1,0,0,0,61,2ZM10,18V16h2v2Zm2-4H10V8h2Zm12,4V16h2v2Zm2-4H24V8h2Zm12,4V16h2v2Zm2-4H38V8h2Zm12,4V16h2v2Zm2-4H52V8h2Zm6-8H4V4H60Z"/></svg>