<svg xmlns="http://www.w3.org/2000/svg" xmlns:xlink="http://www.w3.org/1999/xlink" version="1.1" x="0px" y="0px" viewBox="0 0 48 60" enable-background="new 0 0 48 48" xml:space="preserve"><path fill="white" d="M47.5,20.8L45.4,5.2c-0.2-1.4-1.2-2.4-2.6-2.6L27.2,0.5c-0.9-0.1-1.9,0.2-2.5,0.9L1.4,24.6  c-1.2,1.2-1.2,3.1,0,4.3l17.7,17.7c1.2,1.2,3.1,1.2,4.3,0l23.3-23.3C47.3,22.7,47.6,21.8,47.5,20.8z M40,8c1.6,1.6,1.6,4.1,0,5.7  c-1.6,1.6-4.1,1.6-5.7,0c-1.6-1.6-1.6-4.1,0-5.7C35.9,6.4,38.5,6.4,40,8z M21.5,38.4L9.6,26.5c-0.6-0.6-0.6-1.5,0-2.1  c0.6-0.6,1.5-0.6,2.1,0l11.9,11.9c0.6,0.6,0.6,1.5,0,2.1C23.1,38.9,22.1,38.9,21.5,38.4z M30.7,29.2L18.8,17.3  c-0.6-0.6-0.6-1.5,0-2.1c0.6-0.6,1.5-0.6,2.1,0l11.9,11.9c0.6,0.6,0.6,1.5,0,2.1C32.2,29.8,31.3,29.8,30.7,29.2z"/></svg>