<svg version="1" xmlns="http://www.w3.org/2000/svg" width="933.333" height="933.333" viewBox="0 0 700.000000 700.000000"><path d="M318.1 117c-5.4 1.3-7.1 3.9-10.1 15.6-3.1 12.1-2.8 14.7 2 18.8 1.6 1.3 5.1 2.9 7.8 3.6l4.9 1.1-1.2 4.2-1.3 4.2-5.6-.3c-7.4-.4-9.8 1.8-12 11-1.5 6-1.5 7-.2 9.7 1.5 2.8 3.3 4.1 7 4.8 1.1.2 2.2.5 2.4.7.2.2-1.1 5.4-3 11.5l-3.3 11.1H300c-9.8.1-88.4.1-91.7.1-1.8-.1-3.2-.4-3.2-.9.6-3.7-.5-7.6-2.9-10.3-2.8-3.1-2.9-3.2-12.3-3.2-12.9 0-15.6 1.7-16.8 10.6l-.6 3.9-8.8.1c-4.8.1-8.7 0-8.8-.3 0-.3-.2-2.3-.4-4.6-.5-6.8-4.5-12.8-10.8-16.1-2.7-1.4-6.5-1.7-22.6-1.8-17.9-.1-19.8.1-24 2.1-5.4 2.5-7.4 4.6-9.6 9.7-1.3 3.1-1.5 12.4-1.5 68.5v64.9l2.3 4.4c1.5 2.8 4 5.4 7 7.3l4.7 2.9h19.3c12.3 0 20.6-.4 22.9-1.2 4.5-1.5 10.6-8.1 11.5-12.2.7-3.7.7-3.7 11-4.2 8-.4 8.2-.3 8.8 2 .3 1.4 1.7 3.6 3 4.9 2.2 2.2 3.2 2.4 12.5 2.4 9.9 0 10.2-.1 13.1-2.9 1.7-1.7 2.9-4 2.9-5.5V331l12.3-.1c6.7-.1 12.5-.1 12.8-.1.4.1 6.8.2 14.3.3 7.5 0 13.6.4 13.6.7 0 .3-2 4.6-4.4 9.6-7.7 16.1-11.6 30.2-14.2 51.1-.5 4.6-.5 27.5.1 32.2.3 2.4.7 6 .9 8 .9 7.7 4.7 23.1 8.2 33.2 15.2 43.9 47 78.7 91.6 100.1 17.5 8.4 37.7 15 53.2 17.4 2.1.4 4.1.8 4.5 1 3 1.9 41.4 2.8 54.6 1.3 20.5-2.4 48.2-11.1 61.7-19.4 2.1-1.3 4-2.3 4.3-2.3.5 0 15.6-10.1 16.5-11 .3-.3 3.2-2.7 6.5-5.4 55.1-45.3 83.5-124.7 69.1-193.2-1.8-8.5-6.5-23.5-7.8-25.2-.6-.6-.8-1.2-.4-1.2.7 0-12.5-26-14.3-28.1-.6-.8-4.4-5.9-8.5-11.4-8.7-11.8-23.5-26.7-36.3-36.5-5-3.8-9.4-7-9.7-7-.3 0-2.2-1.2-4.3-2.6-7-4.8-28.7-15-39.8-18.6-12.9-4.3-24.2-7.1-34-8.3-1.6-.2-5-.7-7.5-1-2.5-.3-10.1-.8-17-1-6.9-.2-12.9-.4-13.3-.5-.4 0 .1-1.2 1.2-2.8 1.1-1.5 2.3-4.3 2.6-6.2 1.9-11 1.9-10.5-1.5-13.3-1.7-1.5-3.9-2.7-4.7-2.7-1.2 0-1.4-.7-.9-3.2.9-4.5 1.5-4.8 6.6-3.7 10 2.3 14.6-1.4 17.8-14.4 2.6-10.3 2.7-13.9.6-17.3-2.5-3.7-7.8-5.9-21.4-8.9-.8-.2-9.6-2.5-19.5-5-9.9-2.6-18.7-4.8-19.5-5-.8-.2-13.4-3.3-28-6.9-14.6-3.7-27.2-6.8-28-7-.8-.2-3 0-4.9.4z"/></svg>